<?xml version="1.0" encoding="utf-8"?>
<!-- Generator: Adobe Illustrator 24.1.3, SVG Export Plug-In . SVG Version: 6.00 Build 0)  -->
<svg version="1.1" id="Layer_1" xmlns="http://www.w3.org/2000/svg" xmlns:xlink="http://www.w3.org/1999/xlink" x="0px" y="0px"
	 viewBox="0 0 341.5 611" style="enable-background:new 0 0 341.5 611;" xml:space="preserve">
<style type="text/css">
	.st0{fill:none;stroke:#0000FF;stroke-width:8;stroke-miterlimit:10;}
</style>
<rect x="4" y="4" class="st0" width="333.5" height="603"/>
<rect x="171.5" y="4.5" class="st0" width="165" height="109"/>
<polyline class="st0" points="60.5,163 147,163 147,293 17,293 17,178.5 "/>
<rect x="174" y="342" class="st0" width="130" height="130"/>
<rect x="4.5" y="4.5" class="st0" width="56" height="174"/>
<rect x="318.5" y="147" class="st0" width="18.5" height="157"/>
<rect x="318" y="330" class="st0" width="19" height="157"/>
<rect x="86" y="547.5" transform="matrix(-1.836970e-16 1 -1 -1.836970e-16 692 502.5)" class="st0" width="17.5" height="99.5"/>
<rect x="4" y="479.7" transform="matrix(-1 -1.224647e-16 1.224647e-16 -1 28.5028 1058.9019)" class="st0" width="20.5" height="99.5"/>
<rect x="108.2" y="-43.8" transform="matrix(-1.836970e-16 1 -1 -1.836970e-16 127.75 -104.25)" class="st0" width="15.5" height="111"/>
</svg>
